<?xml version="1.0" encoding="UTF-8" standalone="no"?>
<svg width="17px" height="17px" viewBox="0 0 17 17" version="1.1" xmlns="http://www.w3.org/2000/svg" xmlns:xlink="http://www.w3.org/1999/xlink">
    <!-- Generator: Sketch 41.2 (35397) - http://www.bohemiancoding.com/sketch -->
    <title>tab_wode_n copy</title>
    <desc>Created with Sketch.</desc>
    <defs></defs>
    <g id="Page-1" stroke="none" stroke-width="1" fill="none" fill-rule="evenodd">
        <g id="我的" transform="translate(-272.000000, -529.000000)" fill="#2CD2A8">
            <g id="tab" transform="translate(0.000000, 520.000000)">
                <g id="tab_wode_n-copy" transform="translate(272.000000, 9.000000)">
                    <path d="M0.683251971,17.0000005 C0.673964673,16.9435969 0.669238934,16.8861784 0.669238934,16.8277448 C0.669238934,13.4638321 4.17519008,10.7368421 8.5,10.7368421 C12.8248099,10.7368421 16.3307611,13.4638321 16.3307611,16.8277448 C16.3307611,16.8861784 16.3260353,16.9435969 16.316748,17.0000005 L0.683253271,17 Z" id="Combined-Shape"></path>
                    <path d="M8.33514187,9.06719702 C10.8389792,9.06719702 12.8687404,7.03743583 12.8687404,4.53359851 C12.8687404,2.02976119 10.8389792,0 8.33514187,0 C5.83130455,0 3.80154336,2.02976119 3.80154336,4.53359851 C3.80154336,7.03743583 5.83130455,9.06719702 8.33514187,9.06719702 Z" id="Oval-7"></path>
                </g>
            </g>
        </g>
    </g>
</svg>